<svg xmlns="http://www.w3.org/2000/svg" width="512" height="512" viewBox="0 0 512 512" preserveAspectRatio="xMidYMid meet">
<g stroke="#171717" stroke-width="18" stroke-linecap="round" stroke-linejoin="round">
  <ellipse cx="254" cy="446" rx="88" ry="16" fill="#111111" opacity=".12" stroke="none"/>
  <path d="M182 167 Q154 96 207 121 L227 154" fill="#8c68c9"/>
  <path d="M319 167 Q347 96 294 121 L274 154" fill="#8c68c9"/>
  <ellipse cx="252" cy="209" rx="92" ry="80" fill="#8c68c9"/>
  <path d="M177 181 Q252 133 327 181 L303 213 Q252 189 201 213z" fill="#442d68" stroke-width="12"/>
  <path d="M220 205 v18 M283 205 v18"/>
  <path d="M230 244 Q252 257 274 244" fill="none" stroke-width="8"/>
  <path d="M188 301 Q252 270 316 301 L326 408 Q252 443 178 408z" fill="#442d68"/>
  <ellipse cx="163" cy="333" rx="32" ry="46" fill="#8c68c9"/>
  <ellipse cx="342" cy="333" rx="32" ry="46" fill="#8c68c9"/>
  <path d="M345 310 l54 -49 18 18 -48 57z" fill="#f3e9ff"/>
  <rect x="207" y="405" width="56" height="37" rx="15" fill="#2e1e47"/>
  <rect x="272" y="405" width="56" height="37" rx="15" fill="#2e1e47"/>
</g>
</svg>