<svg xmlns="http://www.w3.org/2000/svg" width="512" height="512" viewBox="0 0 512 512" preserveAspectRatio="xMidYMid meet">
<defs>
  <linearGradient id="fur" x1="0" y1="0" x2="1" y2="1">
    <stop offset="0" stop-color="#ffe39a"/>
    <stop offset="1" stop-color="#f7bd49"/>
  </linearGradient>
  <linearGradient id="armor" x1="0" y1="0" x2="0" y2="1">
    <stop offset="0" stop-color="#fff4c7"/>
    <stop offset="1" stop-color="#e7d89b"/>
  </linearGradient>
  <linearGradient id="shield" x1="0" y1="0" x2="1" y2="1">
    <stop offset="0" stop-color="#c9f2ff"/>
    <stop offset="1" stop-color="#6dc7eb"/>
  </linearGradient>
</defs>
<ellipse cx="256" cy="447" rx="102" ry="21" fill="#050812" opacity="0.2"/>

<g transform="rotate(-8 238 324)">
  
<g transform="rotate(-1 238 330)">
  <path d="M164 282 Q238 244 312 282 L322 410 Q238 449 154 410 Z" fill="url(#armor)" stroke="#1b1830" stroke-width="16" stroke-linejoin="round"/>
  <path d="M186 313 Q238 342 290 313" fill="none" stroke="#f7c84b" stroke-width="12" stroke-linecap="round"/>
  <path d="M201 350 H275" stroke="#76cfea" stroke-width="9" stroke-linecap="round"/>
  <ellipse cx="204" cy="422" rx="31" ry="16" fill="#6c5425" stroke="#1b1830" stroke-width="12"/>
  <ellipse cx="272" cy="422" rx="31" ry="16" fill="#6c5425" stroke="#1b1830" stroke-width="12"/>
</g>
  
<g transform="rotate(-7 230 201)">
  <path d="M164 158 Q142 110 187 118 Q215 125 226 146" fill="#f6c64d" stroke="#1b1830" stroke-width="16" stroke-linejoin="round"/>
  <path d="M295 158 Q317 110 272 118 Q245 125 234 146" fill="#f6c64d" stroke="#1b1830" stroke-width="16" stroke-linejoin="round"/>
  <ellipse cx="230" cy="201" rx="84" ry="72" fill="url(#fur)" stroke="#1b1830" stroke-width="16"/>
  <ellipse cx="230" cy="219" rx="46" ry="30" fill="#fff0c6"/>
  <ellipse cx="201" cy="199" rx="8" ry="12" fill="#31243b"/>
  <ellipse cx="259" cy="199" rx="8" ry="12" fill="#31243b"/>
  <circle cx="204" cy="195" r="2.5" fill="#ffffff"/>
  <circle cx="262" cy="195" r="2.5" fill="#ffffff"/>
  <ellipse cx="230" cy="215" rx="8" ry="6" fill="#7d5631"/>
  <path d="M212 228 Q230 239 248 228" fill="none" stroke="#8b5d2b" stroke-width="6" stroke-linecap="round"/>
  <path d="M230 143 l12 18 21 4 -15 14 4 21 -22 -9 -22 9 4 -21 -15 -14 21 -4z" fill="#fff0a6" stroke="#1b1830" stroke-width="7" stroke-linejoin="round"/>
</g>
</g>

<path d="M184 305 Q167.5 314.5 151 340" fill="none" stroke="#1b1830" stroke-width="28" stroke-linecap="round"/>
<path d="M184 305 Q167.5 314.5 151 340" fill="none" stroke="#e9bd59" stroke-width="18" stroke-linecap="round"/>

<path d="M288 302 Q305 308 322 330" fill="none" stroke="#1b1830" stroke-width="28" stroke-linecap="round"/>
<path d="M288 302 Q305 308 322 330" fill="none" stroke="#e9bd59" stroke-width="18" stroke-linecap="round"/>

<g transform="translate(364 344) scale(0.76)">
  
  <circle cx="0" cy="0" r="51" fill="url(#shield)" stroke="#1b1830" stroke-width="14"/>
  <circle cx="0" cy="0" r="35" fill="#17304b" opacity="0.22" stroke="#ffffff" stroke-width="5"/>
  <path d="M0 -24 L12 -8 L31 -3 L17 11 L20 31 L0 21 L-20 31 L-17 11 L-31 -3 L-12 -8 Z" fill="#ffe36c" stroke="#1b1830" stroke-width="6" stroke-linejoin="round"/>
</g>
<path d="M354 145 l18 19 24 -7 -8 24 18 17 -25 2 -10 23 -9 -24 -25 -3 19 -16z" fill="#ff9f7b" stroke="#1b1830" stroke-width="7"/>
<path d="M389 223 l25 13 M390 247 l28 2 M374 204 l11 -24" stroke="#ff8ba7" stroke-width="8" stroke-linecap="round"/>

</svg>