<svg xmlns="http://www.w3.org/2000/svg" width="512" height="512" viewBox="0 0 512 512" preserveAspectRatio="xMidYMid meet">
<g stroke="#171717" stroke-width="18" stroke-linecap="round" stroke-linejoin="round">
  <ellipse cx="254" cy="446" rx="88" ry="16" fill="#111111" opacity=".12" stroke="none"/>
  <path d="M190 165 Q164 101 211 123 L229 153" fill="#bceeff"/>
  <path d="M315 165 Q341 101 294 123 L276 153" fill="#bceeff"/>
  <ellipse cx="253" cy="210" rx="91" ry="80" fill="#bceeff"/>
  <path d="M182 181 Q253 138 324 181 L305 207 Q253 190 201 207z" fill="#24576d" stroke-width="12"/>
  <path d="M221 207 v18 M285 207 v18"/>
  <ellipse cx="253" cy="231" rx="9" ry="7" fill="#264550" stroke-width="6"/>
  <path d="M230 245 Q253 258 276 245" fill="none" stroke-width="8"/>
  <path d="M193 301 Q253 272 313 301 L321 408 Q253 442 185 408z" fill="#24576d"/>
  <ellipse cx="169" cy="334" rx="30" ry="44" fill="#bceeff"/>
  <ellipse cx="337" cy="334" rx="30" ry="44" fill="#bceeff"/>
  <path d="M347 296 Q401 334 347 372" fill="none" stroke="#76d7f8" stroke-width="14"/>
  <path d="M348 334 h58" stroke="#e4fbff" stroke-width="8"/>
  <path d="M405 334 l-22 -13 v26z" fill="#65d4f4" stroke-width="7"/>
  <rect x="209" y="405" width="55" height="37" rx="15" fill="#183846"/>
  <rect x="272" y="405" width="55" height="37" rx="15" fill="#183846"/>
</g>
</svg>